<?xml version="1.0" encoding="utf-8"?>
<!-- Generator: Adobe Illustrator 12.0.0, SVG Export Plug-In . SVG Version: 6.00 Build 51448)  -->
<!DOCTYPE svg PUBLIC "-//W3C//DTD SVG 1.1//EN" "http://www.w3.org/Graphics/SVG/1.1/DTD/svg11.dtd" [
	<!ENTITY ns_svg "http://www.w3.org/2000/svg">
	<!ENTITY ns_xlink "http://www.w3.org/1999/xlink">
]>
<svg  version="1.1" id="Ebene_1" xmlns="&ns_svg;" xmlns:xlink="&ns_xlink;" width="201.26" height="68.579"
	 viewBox="0 0 201.26 68.579" overflow="visible" enable-background="new 0 0 201.26 68.579" xml:space="preserve">
<g>
	<defs>
		<rect id="XMLID_16_" x="0" width="201.259" height="68.579"/>
	</defs>
	<clipPath id="XMLID_22_">
		<use xlink:href="#XMLID_16_" />
	</clipPath>
	<path clip-path="url(#XMLID_22_)" fill="#00305E" d="M2.161,23.408c0.684,0.221,1.419-0.153,1.64-0.837
		c0.223-0.684-0.151-1.419-0.835-1.64c-0.684-0.223-1.419,0.153-1.64,0.837C1.103,22.452,1.477,23.185,2.161,23.408"/>
	<path clip-path="url(#XMLID_22_)" fill="#00305E" d="M1.504,39.495c0.71-0.113,1.196-0.778,1.082-1.489
		c-0.111-0.71-0.778-1.196-1.49-1.082c-0.708,0.113-1.194,0.778-1.079,1.49C0.129,39.123,0.794,39.605,1.504,39.495"/>
	<path clip-path="url(#XMLID_22_)" fill="#00305E" d="M8.224,54.127c0.582-0.423,0.71-1.236,0.291-1.818
		c-0.425-0.582-1.239-0.711-1.823-0.286c-0.58,0.42-0.709,1.233-0.285,1.817C6.83,54.422,7.642,54.55,8.224,54.127"/>
	<path clip-path="url(#XMLID_22_)" fill="#00305E" d="M20.853,64.114c0.329-0.64,0.074-1.426-0.567-1.751
		c-0.642-0.327-1.424-0.072-1.753,0.568c-0.325,0.641-0.07,1.425,0.573,1.752C19.746,65.011,20.525,64.755,20.853,64.114"/>
	<path clip-path="url(#XMLID_22_)" fill="#00305E" d="M36.641,67.279c0-0.721-0.58-1.303-1.3-1.303
		c-0.721,0-1.303,0.582-1.303,1.303c0,0.72,0.582,1.302,1.303,1.3C36.059,68.581,36.641,67.999,36.641,67.279"/>
	<path clip-path="url(#XMLID_22_)" fill="#00305E" d="M15.879,4.716l-0.572,0.487l2.472,2.904c0.696,0.814,0.854,1.587,0.514,2.469
		c-0.177,0.44-0.466,0.843-0.838,1.162c-1.106,0.941-2.545,0.903-3.395-0.096l-2.656-3.116l-0.571,0.486l-0.24-0.282l1.814-1.543
		l0.24,0.281l-0.573,0.486l2.456,2.883c0.784,0.92,1.838,1.061,2.685,0.342c0.869-0.741,0.929-1.857,0.151-2.774l-2.449-2.871
		l-0.57,0.485l-0.24-0.281l1.53-1.303L15.879,4.716z"/>
	<path clip-path="url(#XMLID_22_)" fill="#00305E" d="M24.758,6.987l-2.001,1.058l-0.171-0.327l0.663-0.349l-1.372-2.594
		c-0.249-0.469-0.642-0.635-1.031-0.429c-0.38,0.202-0.514,0.486-0.815,1.778l1.219,2.301l0.671-0.355l0.173,0.326L20.086,9.46
		l-0.174-0.327l0.671-0.357L18.9,5.591l-0.771,0.408l-0.127-0.238l1.092-1.02l0.159-0.085l0.525,0.992
		c0.255-1.12,0.51-1.563,1.077-1.861c0.656-0.348,1.287-0.138,1.647,0.544l1.419,2.681l0.663-0.352L24.758,6.987z"/>
	<path clip-path="url(#XMLID_22_)" fill="#00305E" d="M24.101,0.03c0.284-0.096,0.577,0.048,0.671,0.322
		c0.096,0.283-0.047,0.576-0.33,0.674c-0.274,0.094-0.567-0.049-0.664-0.334C23.684,0.418,23.826,0.125,24.101,0.03 M27.449,6.153
		l-2.15,0.737l-0.121-0.35L25.9,6.293l-1.169-3.41l-0.824,0.285l-0.089-0.257l1.238-0.836l0.169-0.059l1.385,4.033l0.72-0.245
		L27.449,6.153z"/>
</g>
<polygon fill="#00305E" points="31.124,1.078 30.712,1.163 29.966,5.697 29.77,5.737 27.202,1.885 26.789,1.958 26.715,1.596 
	28.617,1.21 28.691,1.571 28.003,1.711 29.758,4.369 30.27,1.252 29.615,1.386 29.539,1.021 31.05,0.715 "/>
<g>
	<defs>
		<rect id="XMLID_18_" x="0" width="201.259" height="68.579"/>
	</defs>
	<clipPath id="XMLID_23_">
		<use xlink:href="#XMLID_18_" />
	</clipPath>
	<path clip-path="url(#XMLID_23_)" fill="#00305E" d="M35.824,4.21c-0.546,0.384-0.813,0.495-1.213,0.512
		c-0.951,0.038-1.646-0.804-1.697-2.055l-0.005-0.11l3.153-0.13l-0.014-0.27c-0.043-1.081-0.814-1.791-1.895-1.746
		c-1.239,0.052-2.108,1.109-2.049,2.511c0.055,1.379,0.995,2.324,2.267,2.269c0.58-0.023,0.925-0.157,1.657-0.618L35.824,4.21z
		 M32.903,2.157c0.059-0.784,0.548-1.296,1.277-1.324c0.582-0.025,1.009,0.387,1.035,0.988l0.01,0.24L32.903,2.157z"/>
	<path clip-path="url(#XMLID_23_)" fill="#00305E" d="M39.112,5.286l-2.46-0.253l0.038-0.368l0.758,0.077l0.368-3.584l-0.867-0.089
		l0.028-0.272l1.474-0.237l0.177,0.018l-0.113,1.115c0.812-0.843,1.092-1.035,1.451-0.999c0.121,0.013,0.217,0.053,0.27,0.119
		l0.28,0.3L39.868,1.75c-0.18-0.208-0.31-0.312-0.408-0.323c-0.182-0.019-0.378,0.134-0.992,0.744l-0.274,2.648l0.956,0.099
		L39.112,5.286z"/>
	<path clip-path="url(#XMLID_23_)" fill="#00305E" d="M40.73,5.638l-0.389-0.094l0.334-1.381l0.448,0.107L41.06,4.533
		c-0.101,0.419,0.355,0.92,0.959,1.067c0.533,0.131,1.002-0.056,1.096-0.446c0.094-0.389-0.125-0.668-1.052-1.316
		c-0.845-0.586-1.09-1.026-0.941-1.638c0.185-0.76,0.922-1.126,1.817-0.911c0.429,0.104,0.735,0.293,0.952,0.582l0.144-0.336
		l0.417,0.1l-0.574,1.347L43.46,2.878c0.064-0.094,0.113-0.217,0.136-0.304c0.092-0.382-0.27-0.799-0.796-0.926
		c-0.504-0.122-0.903,0.07-1.005,0.488c-0.1,0.419-0.045,0.485,1.017,1.247c0.863,0.61,1.086,1.004,0.935,1.628
		c-0.189,0.778-0.926,1.175-1.791,0.965c-0.544-0.132-0.922-0.357-1.141-0.687L40.73,5.638z"/>
	<path clip-path="url(#XMLID_23_)" fill="#00305E" d="M47.575,0.396c0.282,0.106,0.416,0.403,0.312,0.675
		c-0.106,0.281-0.402,0.415-0.684,0.31c-0.27-0.102-0.404-0.399-0.298-0.681C47.009,0.429,47.303,0.294,47.575,0.396 M46.251,7.249
		l-2.127-0.803L44.256,6.1l0.712,0.269l1.272-3.372l-0.814-0.308l0.094-0.252l1.489,0.144l0.168,0.062l-1.508,3.992l0.711,0.268
		L46.251,7.249z"/>
	<path clip-path="url(#XMLID_23_)" fill="#00305E" d="M49.249,8.253c-0.661,0.138-0.882,0.129-1.215-0.036
		c-0.517-0.261-0.668-0.74-0.396-1.284l1.382-2.77l-0.778-0.387l0.119-0.242l0.878,0.193l0.618-1.238l0.646,0.323l-0.632,1.262
		l1.11,0.556l-0.206,0.412l-1.11-0.556L48.32,7.173c-0.168,0.34-0.115,0.523,0.18,0.672c0.189,0.093,0.323,0.117,0.716,0.089
		L49.249,8.253z"/>
	<path clip-path="url(#XMLID_23_)" fill="#00305E" d="M52.051,9.41c-0.584,0.074-0.878,0.04-1.143-0.141
		c-0.346-0.236-0.415-0.612-0.177-0.96l0.283-0.412l1.638,0.639L52.051,9.41z M53.917,4.751c0.158-0.232,0.107-0.546-0.125-0.705
		c-0.23-0.158-0.542-0.094-0.701,0.138c-0.153,0.221-0.102,0.537,0.129,0.695C53.449,5.039,53.763,4.975,53.917,4.751
		 M53.011,10.701l-0.635-0.437l1.746-2.54c0.374-0.546,0.145-1.238-0.582-1.737c-0.75-0.515-1.547-0.542-1.876-0.062
		c-0.063,0.093-0.083,0.138-0.093,0.278l0.883,0.289l0.271-0.397c0.318,0.049,0.443,0.098,0.607,0.212
		c0.33,0.226,0.414,0.636,0.189,0.965l-0.642,0.933l-1.633-0.646c-0.459-0.183-0.969-0.023-1.258,0.399
		c-0.38,0.553-0.23,1.237,0.338,1.628c0.439,0.3,0.871,0.342,1.514,0.153c-0.023,0.03-0.042,0.057-0.059,0.081
		c-0.21,0.305-0.185,0.59,0.07,0.765c0.066,0.046,0.2,0.101,0.328,0.142l0.673,0.204L53.011,10.701z M55.376,5.754
		c0.159-0.232,0.106-0.546-0.125-0.705c-0.228-0.158-0.542-0.094-0.701,0.136c-0.153,0.225-0.102,0.539,0.131,0.698
		C54.912,6.042,55.224,5.976,55.376,5.754"/>
	<path clip-path="url(#XMLID_23_)" fill="#00305E" d="M55.21,12.78c-0.674-0.04-0.884-0.106-1.162-0.353
		c-0.43-0.387-0.453-0.888-0.045-1.343l2.061-2.309l-0.652-0.58l0.181-0.202l0.798,0.417l0.92-1.031l0.536,0.48l-0.941,1.052
		l0.926,0.828l-0.306,0.343l-0.924-0.825L54.6,11.495c-0.255,0.284-0.25,0.475-0.004,0.696c0.155,0.14,0.28,0.196,0.669,0.274
		L55.21,12.78z"/>
	<path clip-path="url(#XMLID_23_)" fill="#00305E" d="M8.124,38.338l-0.478-2.426l0.363-0.071l0.145,0.737l5.756-1.136l-0.145-0.737
		l0.365-0.071l0.553,2.809c0.223,1.139-0.387,2.08-1.487,2.293c-1.099,0.217-2.138-0.547-2.378-1.764
		c-0.038-0.189-0.049-0.297-0.049-0.563l0.342-0.067c-0.002,0.133,0.005,0.181,0.024,0.271c0.165,0.844,1.011,1.401,1.884,1.229
		c0.787-0.153,1.313-0.799,1.184-1.447l-0.211-1.072l-5.666,1.118l0.163,0.834L8.124,38.338z"/>
	<path clip-path="url(#XMLID_23_)" fill="#00305E" d="M9.847,44.15c0.493,1.105,1.874,1.564,3.079,1.028
		c1.207-0.538,1.785-1.872,1.292-2.979c-0.493-1.105-1.874-1.564-3.079-1.026C9.932,41.712,9.354,43.043,9.847,44.15 M13.833,42.371
		c0.306,0.688-0.238,1.576-1.252,2.029c-1.017,0.452-2.043,0.264-2.349-0.422s0.252-1.569,1.259-2.02
		C12.504,41.506,13.526,41.685,13.833,42.371"/>
	<path clip-path="url(#XMLID_23_)" fill="#00305E" d="M13.658,49.535c-0.648-0.198-0.835-0.312-1.047-0.618
		c-0.328-0.479-0.232-0.97,0.271-1.317l2.548-1.753l-0.493-0.719l0.221-0.154l0.674,0.592l1.14-0.784l0.41,0.594l-1.164,0.802
		l0.704,1.021l-0.377,0.262l-0.705-1.022l-2.473,1.706c-0.313,0.215-0.355,0.402-0.168,0.676c0.119,0.17,0.227,0.255,0.586,0.424
		L13.658,49.535z"/>
	<path clip-path="url(#XMLID_23_)" fill="#00305E" d="M14.493,51.315l-0.28-0.287l1.022-0.987l0.32,0.328l-0.193,0.189
		c-0.31,0.298-0.193,0.967,0.238,1.41c0.384,0.398,0.877,0.492,1.166,0.211c0.287-0.276,0.251-0.633-0.185-1.671
		c-0.403-0.95-0.373-1.453,0.081-1.892c0.563-0.542,1.381-0.457,2.021,0.206c0.306,0.315,0.463,0.638,0.493,0.998l0.302-0.208
		l0.299,0.31l-1.203,0.831l-0.301-0.312c0.108-0.047,0.215-0.123,0.28-0.186c0.281-0.271,0.198-0.817-0.178-1.207
		c-0.361-0.372-0.801-0.424-1.109-0.125c-0.31,0.299-0.296,0.385,0.193,1.598c0.4,0.976,0.378,1.428-0.083,1.876
		c-0.574,0.557-1.409,0.5-2.029-0.143c-0.389-0.4-0.588-0.794-0.595-1.191L14.493,51.315z"/>
	<path clip-path="url(#XMLID_23_)" fill="#00305E" d="M22.227,56.78l-0.721-0.489l3.823-5.644l-0.157-0.106l-1.413-0.487
		l-0.153,0.224l0.722,0.488l-1.298,1.915c-0.202-0.378-0.323-0.521-0.604-0.712c-1.087-0.735-2.589-0.41-3.363,0.733
		c-0.718,1.062-0.605,2.357,0.255,2.943c0.423,0.286,0.816,0.335,1.579,0.185l-0.393,0.582l0.157,0.105l1.409,0.495L22.227,56.78z
		 M20.799,55.462c-0.442,0.026-0.601-0.007-0.858-0.182c-0.68-0.461-0.71-1.292-0.081-2.22c0.646-0.952,1.617-1.226,2.422-0.682
		c0.487,0.331,0.535,0.618,0.187,1.132l-1.302,1.923C21.003,55.442,20.876,55.455,20.799,55.462"/>
	<path clip-path="url(#XMLID_23_)" fill="#00305E" d="M27.169,58.934l-0.716-0.286l1.141-2.863c0.246-0.614-0.132-1.239-0.948-1.566
		c-0.846-0.336-1.63-0.185-1.846,0.355c-0.039,0.103-0.049,0.151-0.028,0.29l0.924,0.088l0.177-0.447
		c0.321-0.021,0.456-0.002,0.641,0.071c0.37,0.149,0.542,0.53,0.395,0.902l-0.42,1.052l-1.734-0.272
		c-0.487-0.076-0.95,0.192-1.139,0.666c-0.25,0.624,0.047,1.259,0.688,1.516c0.494,0.196,0.927,0.142,1.509-0.187
		c-0.015,0.037-0.026,0.065-0.038,0.094c-0.136,0.344-0.051,0.616,0.238,0.731c0.074,0.027,0.216,0.053,0.352,0.062l0.7,0.055
		L27.169,58.934z M25.947,57.887c-0.552,0.2-0.846,0.234-1.145,0.113c-0.389-0.155-0.54-0.506-0.385-0.897l0.185-0.465l1.74,0.263
		L25.947,57.887z"/>
	<path clip-path="url(#XMLID_23_)" fill="#00305E" d="M36.787,60.837l-2.252-0.219l0.036-0.368l0.76,0.073l0.283-2.92
		c0.053-0.539-0.187-0.873-0.625-0.917c-0.329-0.032-0.601,0.093-1.075,0.511l-0.584,0.515l-0.253,2.59l0.748,0.074l-0.036,0.37
		l-2.252-0.221l0.034-0.368l0.748,0.072l0.287-2.919c0.051-0.529-0.185-0.885-0.625-0.927c-0.429-0.043-0.695,0.121-1.66,1.034
		l-0.254,2.591l0.758,0.074l-0.036,0.368l-2.261-0.22l0.036-0.369l0.757,0.074l0.35-3.588l-0.867-0.085l0.028-0.269l1.472-0.247
		l0.179,0.018l-0.109,1.113c0.831-0.793,1.288-1.02,1.925-0.958c0.706,0.07,1.059,0.477,1.084,1.253
		c0.831-0.793,1.286-1.02,1.914-0.96c0.738,0.074,1.15,0.596,1.074,1.354l-0.294,3.028l0.746,0.073L36.787,60.837z"/>
	<path clip-path="url(#XMLID_23_)" fill="#00305E" d="M48.253,30.372h-1.311v8.196h1.311V30.372z M51.763,30.372h-2.507v8.196h2.507
		V30.372z M46.757,44.059h7.503v-4.388h-7.503V44.059z M42.185,41.877c0,0.909,1.502,1.717,3.779,2.18v-4.361
		C43.938,40.107,42.185,40.874,42.185,41.877 M39.246,30.364h-1.311v8.209h1.311V30.364z M40.625,38.574h1.311v-8.209h-1.311V38.574
		z M43.304,38.574h1.311v-8.209h-1.311V38.574z M45.964,45.128v2.74c-3.601-0.532-6.176-1.683-6.718-3.06h-2.694V28.475h9.41v10.097
		c-3.933,0.557-6.688,1.842-6.673,3.296C39.31,43.518,42.711,44.684,45.964,45.128 M54.075,30.372h-1.311v8.196h1.311V30.372z
		 M58.832,41.877c0-1.003-1.757-1.77-3.78-2.182v4.361C57.329,43.594,58.832,42.786,58.832,41.877 M56.399,38.574h1.313v-8.209
		h-1.313V38.574z M59.08,38.574h1.311v-8.209H59.08V38.574z M61.77,38.574h1.311v-8.209H61.77V38.574z M55.054,28.475h9.408v16.334
		H61.77c-0.544,1.377-3.117,2.527-6.718,3.06v-2.74c3.253-0.444,6.654-1.61,6.673-3.261c0.016-1.454-2.74-2.739-6.671-3.296V28.475z
		 M36.552,26.639c-0.049-0.143-0.087-0.342-0.087-0.567c0-0.428,0.117-0.776,0.263-0.776c0.145,0,0.262,0.348,0.262,0.776
		c0,0.225-0.034,0.429-0.087,0.569h2.037c-0.049-0.14-0.083-0.344-0.083-0.569c0-0.428,0.117-0.776,0.26-0.776
		c0.148,0,0.265,0.348,0.265,0.776c0,0.225-0.034,0.429-0.083,0.569h2.017c-0.053-0.14-0.083-0.344-0.083-0.569
		c0-0.428,0.117-0.776,0.263-0.776c0.143,0,0.26,0.348,0.26,0.776c0,0.225-0.032,0.429-0.083,0.569h2.014
		c-0.051-0.14-0.083-0.344-0.083-0.569c0-0.428,0.117-0.776,0.261-0.776c0.147,0,0.264,0.348,0.264,0.776
		c0,0.225-0.034,0.429-0.085,0.569h1.918V23.76h0.65c0.073-0.198,0.192-0.557,0.179-0.961c-0.066-2.084,1.058-3.805,3.523-3.894
		c-0.043-0.138-0.072-0.327-0.072-0.535c0-0.43,0.121-0.778,0.265-0.778c0.145,0,0.266,0.348,0.266,0.778
		c0,0.208-0.028,0.397-0.073,0.535c2.465,0.089,3.589,1.81,3.525,3.894c-0.014,0.404,0.104,0.763,0.181,0.961h0.648v2.881h1.918
		c-0.052-0.14-0.084-0.344-0.084-0.569c0-0.428,0.116-0.776,0.261-0.776s0.263,0.348,0.263,0.776c0,0.225-0.033,0.429-0.083,0.569
		h2.013c-0.051-0.14-0.083-0.344-0.083-0.569c0-0.428,0.115-0.776,0.265-0.776c0.141,0,0.26,0.348,0.26,0.776
		c0,0.225-0.034,0.429-0.085,0.569h2.018c-0.051-0.14-0.083-0.344-0.083-0.569c0-0.428,0.117-0.776,0.262-0.776
		c0.144,0,0.263,0.348,0.263,0.776c0,0.225-0.034,0.429-0.085,0.569h2.036c-0.053-0.14-0.085-0.344-0.085-0.569
		c0-0.428,0.118-0.776,0.263-0.776c0.144,0,0.263,0.348,0.263,0.776c0,0.225-0.038,0.424-0.091,0.567v1.081h-9.406v0.742h-9.092
		V27.72h9.09l-4.545-2.437l-4.545,2.437h-9.41V26.639z"/>
	<path clip-path="url(#XMLID_23_)" fill="#00305E" d="M80.622,36.935c-0.318,0-0.502-0.016-0.938-0.1v-0.587
		c0.218,0.051,0.302,0.051,0.453,0.051c1.442,0,2.631-1.208,2.631-2.7c0-1.341-0.887-2.414-1.995-2.414h-1.826v9.674h1.424
		l-0.016,0.62h-4.141v-0.62h1.256v-9.825h-1.256v-0.62h4.794c1.946,0,3.286,1.307,3.286,3.185S82.703,36.935,80.622,36.935"/>
	<path clip-path="url(#XMLID_23_)" fill="#00305E" d="M88.445,34.386c-1.257,0-2.23,1.442-2.23,3.303
		c0,1.844,0.973,3.302,2.23,3.302c1.258,0,2.248-1.44,2.248-3.302C90.693,35.829,89.703,34.386,88.445,34.386 M88.445,41.696
		c-2.028,0-3.672-1.794-3.672-4.007s1.644-4.007,3.672-4.007c2.03,0,3.672,1.794,3.672,4.007S90.475,41.696,88.445,41.696"/>
	<path clip-path="url(#XMLID_23_)" fill="#00305E" d="M95.854,41.63c-0.973,0-1.56-0.604-1.56-1.627v-5.18h-1.459v-0.452
		l1.459-0.369v-2.314h1.207v2.363h2.079v0.772h-2.079v5.03c0,0.636,0.218,0.87,0.771,0.87c0.354,0,0.57-0.066,1.142-0.402
		l0.285,0.454C96.809,41.479,96.474,41.63,95.854,41.63"/>
	<path clip-path="url(#XMLID_23_)" fill="#00305E" d="M101.974,41.696c-0.937,0-1.644-0.218-2.13-0.671v0.605h-0.671v-2.382h0.771
		v0.452c0,0.722,0.941,1.358,1.979,1.358c0.922,0,1.61-0.487,1.61-1.157c0-0.671-0.471-1.039-2.23-1.727
		c-1.609-0.62-2.179-1.241-2.179-2.297c0-1.307,1.055-2.196,2.599-2.196c0.737,0,1.309,0.184,1.777,0.57l0.1-0.603h0.72
		l-0.401,2.414h-0.72c0.066-0.185,0.1-0.403,0.1-0.554c0-0.654-0.755-1.189-1.66-1.189c-0.872,0-1.441,0.468-1.441,1.189
		c0,0.721,0.117,0.805,2.146,1.627c1.642,0.654,2.163,1.208,2.163,2.281C104.506,40.759,103.465,41.696,101.974,41.696"/>
	<path clip-path="url(#XMLID_23_)" fill="#00305E" d="M111.611,35.778c0-1.039-0.335-1.391-1.324-1.391
		c-1.627,0-2.715,1.291-2.715,3.219c0,1.878,0.819,3.001,2.194,3.001c0.521,0,0.771-0.1,1.358-0.553
		c0.1-0.084,0.269-0.218,0.486-0.386V35.778z M111.931,41.646h-0.319v-1.173c-0.923,0.922-1.509,1.225-2.362,1.225
		c-1.744,0-3.119-1.694-3.119-3.841c0-2.313,1.777-4.174,3.973-4.174c0.57,0,0.872,0.084,1.509,0.418v-3.872h-1.459v-0.452
		l2.416-0.653h0.317V40.54h1.458v0.47L111.931,41.646z"/>
	<path clip-path="url(#XMLID_23_)" fill="#00305E" d="M119.689,38.041l-2.865,0.671v0.839c0,0.703,0.453,1.156,1.156,1.156
		c0.536,0,0.972-0.234,1.709-0.887V38.041z M121.116,41.512c-0.219,0.067-0.453,0.117-0.587,0.117c-0.521,0-0.822-0.369-0.822-0.989
		v-0.167c-0.704,0.872-1.341,1.225-2.23,1.225c-1.156,0-2.011-0.805-2.011-1.929c0-0.855,0.552-1.56,1.358-1.744l2.865-0.654v-1.895
		c0-0.67-0.502-1.156-1.173-1.156c-0.336,0-0.553,0.05-1.04,0.285v0.805l-1.49,0.435c-0.119-0.201-0.136-0.284-0.136-0.469
		c0-0.972,1.124-1.693,2.65-1.693c1.475,0,2.446,0.737,2.446,1.845v5.163h1.291v0.47L121.116,41.512z"/>
	<path clip-path="url(#XMLID_23_)" fill="#00305E" d="M133.233,41.479v-0.62h1.274v-4.912c0-0.906-0.452-1.426-1.19-1.426
		c-0.553,0-0.988,0.252-1.71,1.023l-0.887,0.956v4.359h1.256v0.62h-3.788v-0.62h1.257v-4.912c0-0.89-0.453-1.442-1.19-1.442
		c-0.722,0-1.14,0.318-2.6,1.995v4.359h1.275v0.62h-3.808v-0.62h1.275v-6.036h-1.458v-0.452l2.415-0.655h0.3v1.878
		c1.258-1.459,1.979-1.911,3.051-1.911c1.192,0,1.845,0.621,2.015,1.911c1.256-1.459,1.977-1.911,3.033-1.911
		c1.239,0,2.012,0.805,2.012,2.079v5.097h1.258v0.62H133.233z"/>
</g>
<polygon fill="#00305E" points="150.681,32.593 150.681,31.252 147.326,31.252 147.326,40.859 149.004,40.859 149.004,41.479 
	144.176,41.479 144.176,40.859 145.854,40.859 145.854,31.252 142.499,31.252 142.499,32.593 141.693,32.593 141.693,29.944 
	142.499,29.944 142.499,30.413 150.681,30.413 150.681,29.944 151.485,29.944 151.485,32.593 "/>
<g>
	<defs>
		<rect id="XMLID_20_" x="0" width="201.259" height="68.579"/>
	</defs>
	<clipPath id="XMLID_24_">
		<use xlink:href="#XMLID_20_" />
	</clipPath>
	<path clip-path="url(#XMLID_24_)" fill="#00305E" d="M156.375,35.46c-0.335-0.318-0.569-0.469-0.738-0.469
		c-0.302,0-0.602,0.285-1.526,1.407v4.46h1.609v0.621h-4.141v-0.621h1.275v-6.035h-1.458v-0.452l2.414-0.655h0.3v1.878
		c1.207-1.542,1.645-1.911,2.248-1.911c0.2,0,0.369,0.05,0.47,0.151l0.52,0.452L156.375,35.46z"/>
	<path clip-path="url(#XMLID_24_)" fill="#00305E" d="M162.123,38.041l-2.866,0.671v0.839c0,0.703,0.453,1.156,1.157,1.156
		c0.536,0,0.971-0.234,1.709-0.887V38.041z M163.549,41.512c-0.218,0.067-0.453,0.117-0.588,0.117c-0.52,0-0.821-0.369-0.821-0.989
		v-0.167c-0.703,0.872-1.341,1.225-2.229,1.225c-1.157,0-2.011-0.805-2.011-1.929c0-0.855,0.552-1.56,1.357-1.744l2.866-0.654
		v-1.895c0-0.67-0.502-1.156-1.173-1.156c-0.336,0-0.553,0.05-1.04,0.285v0.805l-1.491,0.435c-0.119-0.201-0.135-0.284-0.135-0.469
		c0-0.972,1.124-1.693,2.65-1.693c1.475,0,2.445,0.737,2.445,1.845v5.163h1.291v0.47L163.549,41.512z"/>
	<path clip-path="url(#XMLID_24_)" fill="#00305E" d="M170.622,41.479v-0.62h1.257v-4.912c0-0.89-0.453-1.442-1.193-1.442
		c-0.719,0-1.137,0.318-2.597,1.995v4.359h1.274v0.62h-3.807v-0.62h1.275v-6.036h-1.458v-0.452l2.415-0.655h0.3v1.878
		c1.258-1.459,1.978-1.911,3.051-1.911c1.241,0,2.014,0.805,2.014,2.095v5.081h1.256v0.62H170.622z"/>
	<path clip-path="url(#XMLID_24_)" fill="#00305E" d="M178.431,41.696c-0.938,0-1.644-0.218-2.13-0.671v0.605h-0.671v-2.382h0.771
		v0.452c0,0.722,0.941,1.358,1.979,1.358c0.922,0,1.609-0.487,1.609-1.157c0-0.671-0.47-1.039-2.229-1.727
		c-1.609-0.62-2.179-1.241-2.179-2.297c0-1.307,1.055-2.196,2.599-2.196c0.737,0,1.309,0.184,1.777,0.57l0.1-0.603h0.721
		l-0.402,2.414h-0.72c0.066-0.185,0.1-0.403,0.1-0.554c0-0.654-0.755-1.189-1.661-1.189c-0.871,0-1.439,0.468-1.439,1.189
		c0,0.721,0.116,0.805,2.146,1.627c1.642,0.654,2.163,1.208,2.163,2.281C180.963,40.759,179.922,41.696,178.431,41.696"/>
	<path clip-path="url(#XMLID_24_)" fill="#00305E" d="M188.437,30.866c-0.687-0.604-0.871-0.738-1.658-1.14
		c-1.343,0.251-1.896,1.19-1.896,3.219v1.106h1.928v0.771h-1.928v6.036h1.61v0.621h-4.142v-0.621h1.275v-6.036h-1.459V34.37
		l1.459-0.369v-1.375c0-2.112,1.375-3.537,3.402-3.537c0.821,0,1.559,0.201,2.329,0.637L188.437,30.866z"/>
	<path clip-path="url(#XMLID_24_)" fill="#00305E" d="M193.047,36.114c0-1.006-0.688-1.727-1.66-1.727
		c-1.224,0-2.079,0.821-2.23,2.13h3.891V36.114z M189.141,37.187v0.184c0,2.096,1.106,3.555,2.699,3.555
		c0.671,0,1.124-0.168,2.062-0.772l0.318,0.621c-1.256,0.721-1.844,0.922-2.817,0.922c-2.127,0-3.637-1.643-3.637-3.957
		c0-2.347,1.526-4.057,3.605-4.057c1.811,0,3.051,1.241,3.051,3.051v0.453H189.141z"/>
	<path clip-path="url(#XMLID_24_)" fill="#00305E" d="M200.287,35.46c-0.335-0.318-0.569-0.469-0.738-0.469
		c-0.302,0-0.602,0.285-1.525,1.407v4.46h1.608v0.621h-4.141v-0.621h1.275v-6.035h-1.458v-0.452l2.414-0.655h0.301v1.878
		c1.206-1.542,1.644-1.911,2.247-1.911c0.2,0,0.369,0.05,0.47,0.151l0.52,0.452L200.287,35.46z"/>
</g>
</svg>
