<svg width="203" height="30" viewBox="0 0 203 30" fill="none" xmlns="http://www.w3.org/2000/svg">
<g clip-path="url(#clip0_4103_1251)">
<path d="M95.2974 15.4839H69.8438V19.8185H95.2974V15.4839Z" fill="#3F00FF"/>
<path d="M200.84 27.6311C201.294 27.5807 201.748 27.4799 202.252 27.3791L202.302 23.1956C202.101 23.246 201.899 23.2964 201.597 23.2964H200.84C200.236 23.2964 199.832 23.1956 199.429 22.994C199.076 22.7924 198.774 22.4395 198.572 22.0363C198.421 21.6331 198.32 21.0786 198.32 20.4738V2.22784H192.978V20.625C192.978 22.9436 193.532 24.7077 194.54 25.867C195.599 27.0262 197.211 27.6311 199.48 27.6311C199.883 27.7319 200.336 27.6815 200.84 27.6311ZM178.613 22.4899C177.907 21.6835 177.554 20.373 177.554 18.6593C177.554 16.9456 177.907 15.6855 178.613 14.8791C179.318 14.0726 180.276 13.6694 181.385 13.6694C182.494 13.6694 183.451 14.0726 184.157 14.8791C184.863 15.6855 185.215 16.9456 185.215 18.6593C185.215 20.373 184.863 21.7339 184.157 22.4899C183.451 23.2964 182.494 23.6996 181.385 23.6996C180.226 23.6996 179.318 23.3468 178.613 22.4899ZM186.224 26.623C187.635 25.867 188.693 24.8589 189.449 23.4476C190.205 22.0867 190.609 20.4738 190.609 18.5585C190.609 16.744 190.256 15.1311 189.449 13.7198C188.693 12.3589 187.635 11.3004 186.224 10.5444C184.812 9.78833 183.25 9.4355 181.334 9.4355C179.419 9.4355 177.857 9.78833 176.445 10.5444C175.034 11.3004 173.976 12.3085 173.22 13.7198C172.463 15.0807 172.06 16.6432 172.06 18.5585C172.06 20.4738 172.413 22.0363 173.22 23.4476C173.976 24.8085 175.034 25.867 176.445 26.623C177.857 27.3791 179.419 27.7319 181.334 27.7319C183.25 27.7319 184.863 27.3791 186.224 26.623ZM158.099 22.4899C157.393 21.6835 157.04 20.373 157.04 18.6593C157.04 16.9456 157.393 15.6855 158.099 14.8791C158.804 14.0726 159.762 13.6694 160.871 13.6694C161.98 13.6694 162.937 14.0726 163.643 14.8791C164.349 15.6855 164.701 16.9456 164.701 18.6593C164.701 20.373 164.349 21.7339 163.643 22.4899C162.937 23.2964 161.98 23.6996 160.871 23.6996C159.711 23.6996 158.804 23.3468 158.099 22.4899ZM165.76 26.623C167.171 25.867 168.23 24.8589 168.986 23.4476C169.742 22.0867 170.145 20.4738 170.145 18.5585C170.145 16.744 169.792 15.1311 168.986 13.7198C168.23 12.3589 167.171 11.3004 165.76 10.5444C164.349 9.78833 162.786 9.4355 160.871 9.4355C158.955 9.4355 157.393 9.78833 155.982 10.5444C154.57 11.3004 153.512 12.3085 152.756 13.7198C152 15.0807 151.597 16.6432 151.597 18.5585C151.597 20.4738 151.949 22.0363 152.756 23.4476C153.512 24.8085 154.57 25.867 155.982 26.623C157.393 27.3791 158.955 27.7319 160.871 27.7319C162.786 27.7319 164.349 27.3791 165.76 26.623ZM137.534 27.3791V17.6008C137.534 16.7944 137.685 16.0887 138.038 15.5343C138.34 14.9295 138.794 14.4758 139.298 14.1734C139.853 13.871 140.508 13.6694 141.264 13.6694C141.869 13.6694 142.322 13.7702 142.776 14.0222C143.129 14.2238 143.482 14.627 143.633 15.1311C143.784 15.6351 143.885 16.2399 143.885 17.0464V27.2782H149.228V16.8952C149.228 15.2319 149.026 13.8206 148.522 12.7117C148.068 11.6532 147.413 10.8468 146.506 10.2924C145.599 9.73792 144.49 9.48591 143.028 9.48591C141.667 9.48591 140.457 9.78833 139.399 10.4436C138.34 11.0988 137.534 12.0061 136.98 13.1653H137.484V2.27825H132.141V27.3287L137.534 27.3791ZM127.151 27.1774C128.26 26.875 129.167 26.371 129.923 25.7661L128.411 22.0363C127.806 22.5403 127.201 22.8932 126.445 23.1452C125.689 23.3972 124.984 23.5484 124.328 23.5484C122.917 23.5484 121.859 23.1452 121.052 22.1371C120.296 21.2299 119.893 20.0202 119.893 18.4577C119.893 16.8952 120.246 15.6855 121.052 14.8287C121.808 13.9718 122.917 13.5686 124.328 13.5686C125.034 13.5686 125.74 13.6694 126.445 13.9214C127.151 14.1734 127.857 14.5766 128.411 15.0303L129.923 11.3508C129.167 10.746 128.26 10.2924 127.151 9.88913C126.042 9.58672 124.883 9.3851 123.774 9.3851C121.909 9.3851 120.246 9.73792 118.834 10.4436C117.423 11.1492 116.365 12.2077 115.558 13.5686C114.802 14.9295 114.399 16.492 114.399 18.4073C114.399 20.3226 114.752 21.8851 115.558 23.2964C116.314 24.7077 117.423 25.7157 118.834 26.4718C120.246 27.2278 121.909 27.5807 123.774 27.5807C124.883 27.7319 126.042 27.5303 127.151 27.1774ZM109.207 27.0262C110.367 26.623 111.224 25.9174 111.879 25.0605C112.534 24.2037 112.836 23.1452 112.836 21.8851C112.836 20.625 112.383 19.5162 111.627 18.7601C110.82 18.0041 109.661 17.5 108.149 17.1976L104.419 16.5424C103.814 16.4416 103.411 16.2903 103.159 15.9879C102.907 15.7359 102.756 15.3831 102.756 14.9799C102.756 14.4254 103.008 14.0222 103.512 13.7198C104.016 13.4174 104.772 13.2157 105.881 13.2157C106.435 13.2157 106.99 13.2662 107.645 13.4174C108.3 13.5686 108.905 13.7198 109.51 14.0222C110.115 14.2742 110.619 14.5766 111.123 14.9295L112.534 11.502C111.929 11.0988 111.324 10.6956 110.568 10.3932C109.863 10.1412 109.056 9.88913 108.25 9.73792C107.443 9.58671 106.586 9.53631 105.78 9.53631C104.268 9.53631 102.957 9.73792 101.748 10.242C100.588 10.746 99.6812 11.3508 99.026 12.2077C98.3707 13.0645 98.0179 14.0726 98.0179 15.3327C98.0179 16.5928 98.3707 17.6512 99.1772 18.4577C99.9836 19.2641 101.092 19.8186 102.554 20.121L106.284 20.8266C106.889 20.9274 107.292 21.0786 107.645 21.3811C107.947 21.5827 108.149 21.9355 108.149 22.3891C108.149 22.9436 107.947 23.3468 107.443 23.6492C106.939 23.9516 106.234 24.1532 105.226 24.1532C104.47 24.1532 103.713 24.1028 102.957 23.9516C102.201 23.8004 101.445 23.5988 100.74 23.2964C100.034 23.0444 99.3788 22.6916 98.8243 22.3891L97.5643 25.8166C98.1691 26.2198 98.8243 26.623 99.5804 26.9254C100.336 27.2278 101.244 27.4295 102.151 27.5807C103.109 27.7319 104.066 27.7823 105.074 27.7823C106.637 27.7319 108.048 27.4799 109.207 27.0262ZM54.8223 22.4899C54.1167 21.6835 53.7639 20.373 53.7639 18.6593C53.7639 16.9456 54.1167 15.6855 54.8223 14.8791C55.528 14.0726 56.4856 13.6694 57.5945 13.6694C58.7034 13.6694 59.661 14.0726 60.3667 14.8791C61.0723 15.6855 61.4252 16.9456 61.4252 18.6593C61.4252 20.373 61.0723 21.7339 60.3667 22.4899C59.661 23.2964 58.7034 23.6996 57.5945 23.6996C56.4856 23.6996 55.528 23.3468 54.8223 22.4899ZM59.7114 26.6734C60.7699 25.9678 61.4756 25.0605 61.778 23.9012H61.4756V27.3287H66.7175V2.22784H61.3747V13.0645H61.7276C61.3747 12.0061 60.6691 11.1492 59.6106 10.494C58.5522 9.83873 57.2921 9.48591 55.9816 9.48591C54.4695 9.48591 53.159 9.83873 51.9493 10.5948C50.8405 11.3508 49.9332 12.3589 49.278 13.7198C48.6227 15.0807 48.3203 16.6432 48.3203 18.5585C48.3203 20.4738 48.6227 22.0363 49.278 23.4476C49.9332 24.8589 50.8405 25.867 51.9493 26.623C53.0582 27.3287 54.4191 27.6815 55.9816 27.6815C57.3929 27.7319 58.653 27.3791 59.7114 26.6734Z" fill="#3F00FF"/>
<path d="M29.7582 0H8.01928C7.88566 0 7.77734 0.108318 7.77734 0.241935V21.9808C7.77734 22.1145 7.88566 22.2228 8.01928 22.2228H29.7582C29.8918 22.2228 30.0001 22.1145 30.0001 21.9808V0.241935C30.0001 0.108318 29.8918 0 29.7582 0Z" fill="#3F00FF"/>
<path d="M0 3.99194V29.753C0 29.8891 0.110887 29.995 0.241935 29.995H26.003C26.1391 29.995 26.245 29.8841 26.245 29.753V23.7752C26.245 23.6391 26.1341 23.5333 26.003 23.5333H6.70867C6.57258 23.5333 6.46673 23.4224 6.46673 23.2913V3.99194C6.46673 3.85585 6.35585 3.75 6.2248 3.75H0.241935C0.105847 3.75 0 3.86089 0 3.99194Z" fill="#3F00FF"/>
<path d="M23.3526 12.9738C23.3526 13.0696 23.2719 13.1502 23.1762 13.1502H22.3092C22.2135 13.1502 22.1328 13.0696 22.1328 12.9738V6.82966C22.1328 6.73389 22.2135 6.66333 22.3092 6.66333H23.1762C23.2719 6.66333 23.3526 6.73389 23.3526 6.82966V12.9738Z" fill="white"/>
<path d="M15.301 12.9738C15.301 13.0696 15.2204 13.1502 15.1246 13.1502H14.2577C14.1619 13.1502 14.0813 13.0696 14.0813 12.9738V10.3024H11.6014V12.9738C11.6014 13.0696 11.5208 13.1502 11.425 13.1502H10.5631C10.4674 13.1502 10.3867 13.0696 10.3867 12.9738V6.82966C10.3867 6.73389 10.4674 6.66333 10.5631 6.66333H11.425C11.5208 6.66333 11.6014 6.73389 11.6014 6.82966V9.23893H14.0813V6.82966C14.0813 6.73389 14.1619 6.66333 14.2577 6.66333H15.1246C15.2204 6.66333 15.301 6.73389 15.301 6.82966V12.9738Z" fill="white"/>
<path d="M21.131 8.68952C21.131 10.2369 19.9617 10.7309 18.6159 10.7309C18.3891 10.7309 18.0413 10.7057 17.8397 10.6956V12.9738C17.8397 13.0696 17.7692 13.1502 17.6734 13.1502H16.8014C16.7056 13.1502 16.625 13.0696 16.625 12.9738V6.96573C16.625 6.78932 16.7308 6.72884 16.9022 6.70364C17.3558 6.63307 17.9758 6.58771 18.6159 6.58771C19.9617 6.58771 21.131 7.0615 21.131 8.60384V8.68448V8.68952Z" fill="white"/>
<path d="M18.6121 7.59574C18.4307 7.59574 17.9922 7.61086 17.8359 7.63102V9.70763C17.9771 9.71771 18.466 9.73283 18.6121 9.73283C19.5547 9.73283 19.9226 9.38505 19.9226 8.68445V8.6038C19.9226 7.87296 19.4841 7.5907 18.6121 7.5907" fill="#3F00FF"/>
</g>
<defs>
<clipPath id="clip0_4103_1251">
<rect width="202.303" height="30" fill="white"/>
</clipPath>
</defs>
</svg>
